<svg width="256" height="256" viewBox="0 0 256 256" fill="none" xmlns="http://www.w3.org/2000/svg">
<g clip-path="url(#clip0_637_7376)">
<rect width="256" height="256" rx="20" fill="#2A1E5C"/>
<mask id="mask0_637_7376" style="mask-type:alpha" maskUnits="userSpaceOnUse" x="0" y="0" width="256" height="256">
<rect x="256" width="256" height="256" rx="20" transform="rotate(90 256 0)" fill="#2A1E5C"/>
</mask>
<g mask="url(#mask0_637_7376)">
<mask id="mask1_637_7376" style="mask-type:alpha" maskUnits="userSpaceOnUse" x="-57" y="-496" width="313" height="753">
<path d="M256 -495.888L256 256.717L-56.5664 256.717L-56.5664 -495.888L256 -495.888Z" fill="#2A1E5C"/>
</mask>
<g mask="url(#mask1_637_7376)">
<g opacity="0.6">
<ellipse opacity="0.36" cx="238.371" cy="229.372" rx="238.371" ry="229.372" transform="matrix(0.0478241 -1.00367 -0.993409 -0.0521841 341.515 444.846)" fill="url(#paint0_linear_637_7376)"/>
</g>
</g>
<path d="M191.308 142.059L113.559 63.8826C112.423 62.7402 110.861 62.1465 109.254 62.2442C107.647 62.3419 106.159 63.131 105.173 64.4086L100.8 70.0678L79.0644 48.2127C72.1057 41.2158 60.7819 41.2158 53.8232 48.2127C50.4523 51.6022 48.5986 56.1115 48.5986 60.9064C48.5986 65.7013 50.4523 70.2031 53.8232 73.5926L78.7056 98.6117L49.5852 136.257C49.5852 136.257 49.5478 136.31 49.5254 136.332C42.4023 145.862 43.3515 159.412 51.7379 167.845L87.9216 204.227C92.5408 208.872 98.6998 211.247 104.889 211.247C109.934 211.247 115.002 209.668 119.262 206.444C119.284 206.429 119.307 206.407 119.329 206.392L190.792 150.491C192.056 149.499 192.84 148.011 192.945 146.395C193.042 144.779 192.452 143.201 191.308 142.059ZM61.7536 65.6262C60.4979 64.3636 59.8103 62.6876 59.8103 60.9064C59.8103 59.1252 60.4979 57.4418 61.7536 56.1867C64.3398 53.5788 68.5479 53.5863 71.1415 56.1867L93.8638 79.0338L85.6419 89.6457L61.7536 65.6262ZM112.49 197.463C107.445 201.243 100.299 200.732 95.8445 196.253L59.6608 159.871C55.2135 155.391 54.6977 148.214 58.4649 143.141L86.7033 106.653L108.2 128.268C106.339 133.123 107.355 138.842 111.249 142.758C116.526 148.064 125.077 148.064 130.354 142.758C135.631 137.452 135.631 128.854 130.354 123.548C126.527 119.708 120.981 118.648 116.205 120.377L93.6396 97.6873L110.128 76.3733L178.893 145.516L112.49 197.463Z" fill="white"/>
<path d="M209.456 195.156C209.456 195.299 209.456 195.442 209.441 195.592C209.217 204.287 202.146 211.254 193.446 211.254C184.746 211.254 177.682 204.287 177.458 195.592C177.443 195.449 177.443 195.306 177.443 195.156C177.443 194.968 177.443 194.773 177.458 194.57C177.525 193.097 177.869 191.421 178.415 189.625C181.136 180.523 188.864 168.318 192.048 163.516C192.713 162.516 194.171 162.516 194.836 163.516C198.02 168.318 205.756 180.516 208.477 189.625C209.015 191.421 209.359 193.097 209.434 194.57C209.449 194.773 209.449 194.968 209.449 195.156H209.456Z" fill="#FF3475"/>
</g>
</g>
<defs>
<linearGradient id="paint0_linear_637_7376" x1="60.4592" y1="-49.5299" x2="331.443" y2="296.238" gradientUnits="userSpaceOnUse">
<stop stop-color="#FF3475"/>
<stop offset="1" stop-color="#FF3475" stop-opacity="0"/>
</linearGradient>
<clipPath id="clip0_637_7376">
<rect width="256" height="256" fill="white"/>
</clipPath>
</defs>
</svg>
